<?xml version="1.0" encoding="utf-8"?>
<!-- Generator: Adobe Illustrator 22.0.0, SVG Export Plug-In . SVG Version: 6.00 Build 0)  -->
<svg version="1.1" id="Layer_1" xmlns="http://www.w3.org/2000/svg" xmlns:xlink="http://www.w3.org/1999/xlink" x="0px" y="0px"
	 viewBox="0 0 414.3 400.9" style="enable-background:new 0 0 414.3 400.9;" xml:space="preserve">
<style type="text/css">
	.st0{fill:#8F8F8F;}
	.st1{fill:#DFDFDF;}
	.st2{fill:#CACACA;}
	.st3{fill:#010101;}
	.st4{fill:#3E3E3E;}
	.st5{fill:#0B0B0B;}
	.st6{fill:#EAEAEA;}
	.st7{fill:#E7E7E7;}
	.st8{fill:#D2D2D2;}
	.st9{fill:#A2A2A2;}
	.st10{fill:#9C9C9C;}
	.st11{fill:#AEAEAE;}
	.st12{fill:#B4B4B4;}
</style>
<g>
	<path class="st0" d="M293.6,144.4c-20.3,30.4-40.6,60.8-60.9,91.2c-6.7,10.1-13.5,20.1-20.3,30.1c-3,4.6-3.7,4.7-6.7,0.1
		c-13.2-19.8-26.4-39.5-39.7-59.3c-12.6-18.8-25.2-37.6-37.7-56.4c-0.9-1.4-1.6-2.9-2.4-4.3c0-0.5,0.1-1,0.1-1.5
		C181.9,144.3,237.8,144.3,293.6,144.4z"/>
	<path class="st1" d="M126.8,125.3c7.4-11.2,14.9-22.4,22.3-33.6c12.4-18.6,24.7-37.2,37.1-55.7c6.5-9.7,13-19.3,19.7-28.8
		c3.1-4.4,4-4.3,7,0.2c20.9,31.1,41.7,62.1,62.5,93.2c5.3,7.9,10.4,15.8,15.6,23.7c-2.3,1-4.6,2.9-6.9,2.9
		c-50.3,0.2-100.7,0.2-151,0C131,127.2,128.9,126,126.8,125.3z"/>
	<path class="st1" d="M25.7,268.3c11.1-16.7,22.3-33.4,33.4-50.2c14.8-22.3,29.6-44.6,44.5-66.9c4-6,4.9-6,8.9,0
		c12,18,23.9,36,35.9,53.9c14.2,21.1,28.5,42.1,42.7,63.1c-2.5,0.7-5.1,1.9-7.6,1.9c-50.4,0.1-100.9,0.1-151.3,0
		C30,270.2,27.9,269,25.7,268.3z"/>
	<path class="st2" d="M226.6,268c2.7-4.4,5.4-8.8,8.2-13.1c24-35.9,48.1-71.8,72.1-107.7c0.4-0.5,0.8-1,1.8-2.3
		c28,41.8,55.7,83.1,83.5,124.5c-2.3,0.3-4.6,0.9-6.9,0.9c-51,0.1-102.1,0.1-153.1-0.1C230.4,270.2,228.5,268.8,226.6,268z"/>
	<path d="M282.2,345.5c-0.1,27.1-21.8,48.1-49.5,48c-27.3-0.1-48.5-21.6-48.4-49.1c0.1-26.8,22.2-48.3,49.6-48.2
		C260.9,296.3,282.3,318.2,282.2,345.5z M198.7,344.6c-0.1,19.7,15.1,35.5,34.1,35.6c19.6,0.2,35.1-15.3,35.2-35.1
		c0.1-20-15.1-35.5-34.6-35.5C213.9,309.6,198.8,324.9,198.7,344.6z"/>
	<path d="M59.1,391.4c-4.8,0-9.1,0-13.7,0c0-32.7,0-65.5,0-99.3c22.6,23.6,44.7,46.7,67.7,70.7c0-22.1,0-43,0-64.4c5,0,9.4,0,14.1,0
		c0,32.6,0,65,0,98.5c-22.8-23.8-45-46.9-68-70.9C59.1,348.7,59.1,369.9,59.1,391.4z"/>
	<path class="st3" d="M346.6,311.5c-7.4,0-14.1,0-21.3,0c0-4.5,0-8.6,0-13c18.7,0,37.4,0,56.4,0c0,4.1,0,8.2,0,12.8
		c-6.7,0-13.5,0-20.8,0c0,26.9,0,53.3,0,80c-5,0-9.4,0-14.3,0C346.6,364.7,346.6,338.3,346.6,311.5z"/>
	<path class="st4" d="M126.1,144.3c0,0.5-0.1,1-0.1,1.5c-1-1.1-2-2.1-3.8-4.1c2.6-0.2,4.1-0.4,5.6-0.4c54.1,0,108.2,0,162.2,0.1
		c1.2,0,4.4-2,4,2c-54.4,0-108.8-0.1-163.3,0C129.2,143.3,127.6,144,126.1,144.3z"/>
	<path class="st5" d="M292.9,127.2c0.9,0.5,1.9,1,2.8,1.5c-0.4,0.5-0.7,1-1.1,1.4c-57,0-114,0-172.7,0c2.1-1.5,3-2.1,4-2.8
		c-0.2,0.3-0.2,0.6-0.3,0.9c0.9,0.3,1.9,1,2.8,1c53.6,0,107.2,0.1,160.7,0c1.3,0,2.5-1.2,3.8-1.9
		C293.1,127.3,292.9,127.2,292.9,127.2z"/>
	<path class="st5" d="M191.9,269.9c0.7,0.8,1.4,1.6,2.9,3.2c-58,0-115.1,0-173.8,0c2.1-1.4,3-2,4-2.7c-0.2,0.3-0.3,0.5-0.3,0.8
		c1.8,0.3,3.5,1,5.3,1c42.6,0.1,85.2,0,127.9,0c10,0,20,0.1,30-0.1c1.4,0,2.7-1.3,4-2L191.9,269.9z"/>
	<path class="st5" d="M392.9,271.2c0.1,0.7,0.3,1.5,0.4,2.2c-1.8,0.1-3.6,0.2-5.5,0.2c-52.9,0-105.7,0-158.6,0c-1.7,0-3.3,0-5-0.3
		c-0.4-0.1-0.7-1-1.1-1.6c0.6-0.1,1.2-0.3,1.8-0.4c1.7,0.3,3.5,0.9,5.2,0.9c52.5,0,105.1,0,157.6,0c1.8,0,3.5-0.6,5.3-0.9
		L392.9,271.2z"/>
	<path class="st6" d="M125.7,128.3c0-0.3,0.1-0.6,0.3-0.9c0.3-0.7,0.5-1.4,0.8-2.1c2.1,0.7,4.3,1.9,6.4,1.9
		c50.3,0.1,100.7,0.1,151,0c2.3,0,4.6-1.9,6.9-2.9c0.6,1,1.2,1.9,1.9,2.9l0.1,0.1c-2.4,0.3-4.9,0.9-7.3,0.9
		C232.4,128.3,179,128.3,125.7,128.3z"/>
	<path class="st7" d="M24.6,271.3c0-0.3,0.1-0.6,0.3-0.8c0.3-0.7,0.5-1.4,0.8-2.1c2.2,0.7,4.3,1.9,6.5,1.9
		c50.4,0.1,100.9,0.1,151.3,0c2.5,0,5.1-1.2,7.6-1.9c0.3,0.5,0.5,1.1,0.8,1.6c0,0-0.1,0.3-0.1,0.3c-2.3,0.4-4.5,1-6.8,1
		C131.5,271.3,78.1,271.3,24.6,271.3z"/>
	<path class="st8" d="M226.6,268c1.9,0.8,3.8,2.2,5.7,2.2c51,0.1,102.1,0.1,153.1,0.1c2.3,0,4.6-0.6,6.9-0.9
		c0.2,0.6,0.4,1.2,0.6,1.8c0,0,0.1,0.2,0.1,0.2c-19.8,0-39.6-0.1-59.4-0.1c-33.6,0-67.2,0-100.9-0.1c-2.3,0-4.5-1.6-6.8-2.4
		C226.2,268.5,226.4,268.3,226.6,268z"/>
	<path class="st9" d="M226,268.8c2.3,0.8,4.5,2.4,6.8,2.4c33.6,0.2,67.2,0.1,100.9,0.1c19.8,0,39.6,0,59.4,0.1
		c-1.8,0.3-3.5,0.9-5.3,0.9c-52.5,0-105.1,0-157.6,0c-1.7,0-3.5-0.6-5.2-0.9C225.3,270.5,225.6,269.6,226,268.8z"/>
	<path class="st10" d="M126.1,144.3c1.6-0.3,3.2-0.9,4.7-0.9c54.4,0,108.8,0,163.3,0c-0.1,0.3-0.3,0.7-0.4,1
		C237.8,144.3,181.9,144.3,126.1,144.3z"/>
	<path class="st11" d="M125.7,128.3c53.3,0,106.7,0,160,0c2.4,0,4.9-0.6,7.3-0.9c-1.3,0.6-2.5,1.9-3.8,1.9
		c-53.6,0.1-107.2,0.1-160.7,0C127.6,129.3,126.6,128.6,125.7,128.3z"/>
	<path class="st12" d="M24.6,271.3c53.5,0,106.9,0,160.4,0c2.3,0,4.5-0.7,6.8-1c-1.3,0.7-2.7,1.9-4,2c-10,0.2-20,0.1-30,0.1
		c-42.6,0-85.2,0-127.9,0C28.2,272.3,26.4,271.6,24.6,271.3z"/>
</g>
</svg>
