<svg id="Layer_1" data-name="Layer 1" xmlns="http://www.w3.org/2000/svg" viewBox="0 0 349.16 98.13"><defs><style>.cls-1{fill:#1d3869;}.cls-2{fill:#fff;}.cls-3{fill:#00538e;stroke-width:0.03px;}.cls-3,.cls-6{stroke:#000;}.cls-4{fill:#e11b22;}.cls-5{fill:#006f45;}.cls-6{fill:none;stroke-width:0.54px;}.cls-7{fill:#f6da07;}</style></defs><title>yale-logo</title><path class="cls-1" d="M19.67,5.37l-6,10.14v6.83c.69,1.64,2.45,1.86,4.12,1.93v.95H6v-.95c1.68-.07,3.72-.33,4.27-1.42v-7L4.12,5.44A4.43,4.43,0,0,0,0,3V2H10.26V3c-1.94.11-2.56.47-3.11.91l5.7,9.85,5.58-9.81a5.37,5.37,0,0,0-3.28-1V2h8.76V3A4.59,4.59,0,0,0,19.67,5.37Zm12,20.18a2.79,2.79,0,0,1-3-2.3,6.51,6.51,0,0,1-4.38,2.3,3.35,3.35,0,0,1-3.65-3.29,5.74,5.74,0,0,1,.77-2.92l7.26-2.62V14c0-1.65-.76-3.22-2.41-3.22-1,0-1.93,1.21-2,3.07L21,14.42v-.37c1.1-3.28,4.71-4.56,6.46-4.56,3.32,0,4.53,1.75,4.49,4.45l-.11,7.67c0,1.49.77,1.86,1.5,1.86a2.84,2.84,0,0,0,1.86-1.06v1.06A5.43,5.43,0,0,1,31.65,25.55Zm-7.3-5.95a6.81,6.81,0,0,0-.26,1.9,2,2,0,0,0,1.82,2.19,4,4,0,0,0,2.71-1.13l0-4.93C27.7,18.07,25.37,19.09,24.35,19.6Zm11.13,5.62v-.84c1.64-.11,2.11-.47,2.41-1.09V4.38c0-1.24-.19-1.75-2.7-2V1.68L41.86,0l.22.62L41,1.93V23.29c.37.73,1.06,1,2.56,1.09v.84Zm16.86.29c-3.83,0-6.79-3-6.79-7.26,0-5.18,3.18-8.72,7.67-8.72,3.61,0,5.62,2,5.62,5.29v.66L49,15.4a12.08,12.08,0,0,0-.11,1.86c0,3.73,2.34,6.17,5.44,6.17,1.86,0,2.81-.65,4.27-1.9l.55.84C57.05,24.27,55.33,25.51,52.34,25.51Zm.33-14.85c-1.83,0-3.1,1.46-3.54,3.76l6.42-.08C55.55,12.41,54.35,10.66,52.67,10.66Z" transform="translate(0 0)"/><path class="cls-1" d="M74.87,25.56a11.56,11.56,0,0,1-4.5-1l-.44-4.09h.69a5.7,5.7,0,0,0,1.84,3,5.37,5.37,0,0,0,2.79,1.09c2,0,3.06-1.25,3.06-2.62,0-1.76-1.12-2.19-3-3-3.53-1.47-4.79-2.41-4.79-4.78,0-2.66,2.66-4.48,6.2-4.48a9.07,9.07,0,0,1,3.78.82v4h-.65a3.81,3.81,0,0,0-1.41-2.88A4.7,4.7,0,0,0,76,10.74c-2,0-3,1.22-3,2.41,0,1.59.81,2.25,3.22,3.19,3.28,1.31,4.6,2.34,4.6,4.66C80.88,23.84,78.19,25.56,74.87,25.56Z" transform="translate(0 0)"/><path class="cls-1" d="M97.76,24.69a13.13,13.13,0,0,1-5.26.84c-4.94,0-8.51-3.53-8.51-8s3.79-7.78,8.57-7.78a19.82,19.82,0,0,1,5.51.87v4.13h-.66A3.71,3.71,0,0,0,96,11.9a5.6,5.6,0,0,0-3.65-1.19c-3.41,0-5.35,2.84-5.35,6.22,0,4.44,2.5,7.57,6.47,7.57a4.15,4.15,0,0,0,2.6-.87,5,5,0,0,0,1.81-3l.72.13Z" transform="translate(0 0)"/><path class="cls-1" d="M111.83,25.22v-.69c1.09,0,2.06-.34,2.31-.81V18.09H106v5.63c.19.47,1.22.78,2.28.81v.69H101v-.69c1.06,0,2.09-.34,2.28-.81V11.49c-.19-.47-1.22-.78-2.28-.85V10h7.25v.62c-1.06.07-2.09.38-2.28.85v5.32h8.13V11.49c-.25-.47-1.22-.78-2.31-.85V10h7.32v.62c-1.1.07-2.07.38-2.32.85V23.72c.25.47,1.22.78,2.32.81v.69Z" transform="translate(0 0)"/><path class="cls-1" d="M129,25.6c-4.82,0-7.6-3.32-7.6-7.92s3.85-8,8.66-8,7.61,3.35,7.61,7.76C137.64,22.25,133.79,25.6,129,25.6Zm-.25-14.86c-2.25,0-4.44,2.5-4.44,6.22,0,4.38,2.1,7.54,5.85,7.54,2.38,0,4.6-2.41,4.6-6.19C134.73,13.71,132.41,10.74,128.72,10.74Z" transform="translate(0 0)"/><path class="cls-1" d="M148.23,25.6c-4.81,0-7.6-3.32-7.6-7.92s3.85-8,8.67-8,7.6,3.35,7.6,7.76C156.9,22.25,153.05,25.6,148.23,25.6ZM148,10.74c-2.25,0-4.44,2.5-4.44,6.22,0,4.38,2.1,7.54,5.85,7.54,2.38,0,4.6-2.41,4.6-6.19C154,13.71,151.67,10.74,148,10.74Z" transform="translate(0 0)"/><path class="cls-1" d="M158.7,25.22v-.69c1-.06,2.44-.31,2.76-1.09v-12c-.19-.47-1.22-.75-2.29-.82V10h7.48v.65c-1.07.07-2.32.38-2.5.85V24.06l4.31-.12c1.63,0,2.69-1.6,2.72-3.6h.66v4.88Z" transform="translate(0 0)"/><path class="cls-1" d="M189.38,25.6c-4.82,0-7.6-3.32-7.6-7.92s3.84-8,8.66-8S198,13,198,17.43C198,22.25,194.19,25.6,189.38,25.6Zm-.25-14.86c-2.25,0-4.44,2.5-4.44,6.22,0,4.38,2.09,7.54,5.84,7.54,2.38,0,4.6-2.41,4.6-6.19C195.13,13.71,192.82,10.74,189.13,10.74Z" transform="translate(0 0)"/><path class="cls-1" d="M211.41,13.87c-.09-2.1-1-2.66-2.75-2.66h-3.38v5.91l3.25-.13c1.57-.06,2.26-.09,2.47-1.84h.63v5.13H211c-.18-1.94-.81-1.94-2.44-2l-3.25,0v5.06c.31.79,1.69,1.13,2.78,1.19v.69h-8v-.69c1.06-.06,2.22-.28,2.53-1.06V11.58c-.22-.53-1.31-.84-2.41-.87V10h9.89a4.38,4.38,0,0,0,1.4-.16h.6v4Z" transform="translate(0 0)"/><path class="cls-1" d="M235.09,25.22v-.69c1.1-.06,2.32-.37,2.51-.84l-.47-8.76,0-2.5-.75,1.9-4.79,10.92h-.94L226.46,13.9,225.83,12l-.06,1.69-.65,9.79c.15.47,1.31,1,2.37,1v.69h-6.22v-.69a3.34,3.34,0,0,0,2.41-1l.65-8.57c.07-.88.19-2.57.19-2.66s0-.5,0-.78a3,3,0,0,0-2.13-.82V10h5.35l.78,2.28,3.41,9.42,3.91-9.2,1-2.5h4.78v.65a2.87,2.87,0,0,0-2.13.79V12c0,.25.1,2.13.16,2.91l.5,8.76a3.21,3.21,0,0,0,2.35.84v.69Z" transform="translate(0 0)"/><path class="cls-1" d="M250.15,25.22l-5.41.06v-.65c1.09-.07,2.72-.38,3-1.16v-12c-.19-.47-1.22-.75-2.32-.82V10h9.89a4.76,4.76,0,0,0,1.41-.16h.56v4h-.62c-.1-2.1-.94-2.66-2.76-2.66h-3.47v5.66h3.25c1.63,0,2.29,0,2.51-1.78h.59V20h-.63c-.18-1.91-.72-1.94-2.47-1.94h-3.25v5.16a1,1,0,0,0,.63.81l3.78-.06c1.6,0,2.66-.72,2.72-2.75h.6v4Z" transform="translate(0 0)"/><path class="cls-1" d="M269,25.25l-7.94,0v-.69c1.06,0,2.19-.34,2.38-.81V11.49c-.19-.47-1.41-.78-2.51-.85V10c2.76-.13,5.51-.28,7.64-.28,5.44,0,8.69,2.81,8.69,7.38A8,8,0,0,1,269,25.25Zm-1.44-14.54h-1.44V23.56a4.38,4.38,0,0,0,2.48.72c3.75,0,5.69-2.56,5.69-6.32C274.32,13.08,271.79,10.71,267.59,10.71Z" transform="translate(0 0)"/><path class="cls-1" d="M279.38,25.22v-.69c1.13-.06,2.25-.37,2.44-.84V11.52c-.19-.47-1.31-.78-2.44-.85V10H287v.65c-1.13.07-2.25.38-2.44.85V23.69c.19.47,1.31.78,2.44.84v.69Z" transform="translate(0 0)"/><path class="cls-1" d="M302.77,24.69a13.13,13.13,0,0,1-5.26.84c-4.94,0-8.51-3.53-8.51-8s3.79-7.78,8.57-7.78a19.82,19.82,0,0,1,5.51.87v4.13h-.66A3.74,3.74,0,0,0,301,11.9a5.66,5.66,0,0,0-3.66-1.19c-3.41,0-5.35,2.84-5.35,6.22,0,4.44,2.5,7.57,6.47,7.57a4.15,4.15,0,0,0,2.6-.87,5,5,0,0,0,1.81-3l.72.13Z" transform="translate(0 0)"/><path class="cls-1" d="M306,25.22v-.69c1.13-.06,2.26-.37,2.44-.84V11.52c-.18-.47-1.31-.78-2.44-.85V10h7.57v.65c-1.12.07-2.25.38-2.44.85V23.69c.19.47,1.32.78,2.44.84v.69Z" transform="translate(0 0)"/><path class="cls-1" d="M331.51,11.74V20.9c0,1.29.06,3.48.16,4.51h-1.44L320.94,14l-1-1.53.1,1.41v5.47c0,1.31.12,3.13.15,4.13.22.47,1.57,1,2.66,1v.69h-6.6v-.69a3,3,0,0,0,2.35-1V14.93a32,32,0,0,0-.1-3.25,2.93,2.93,0,0,0-2.28-1V10H321l1.34,1.72,7.76,9.54V15.81c0-1.32-.09-3.35-.12-4.07-.22-.5-1.6-1-2.69-1.07V10h6.53v.65A3,3,0,0,0,331.51,11.74Z" transform="translate(0 0)"/><path class="cls-1" d="M341.12,25.22l-5.41.06v-.65c1.09-.07,2.72-.38,3-1.16v-12c-.19-.47-1.22-.75-2.31-.82V10h9.88a4.76,4.76,0,0,0,1.41-.16h.56v4h-.62c-.1-2.1-.94-2.66-2.76-2.66h-3.47v5.66h3.25c1.63,0,2.29,0,2.51-1.78h.59V20h-.63c-.18-1.91-.71-1.94-2.47-1.94h-3.25v5.16a1,1,0,0,0,.63.81l3.78-.06c1.6,0,2.66-.72,2.72-2.75h.6v4Z" transform="translate(0 0)"/><path class="cls-2" d="M174.54,97.82c15.73-9.18,24.36-24.13,24.38-43.7V36.85H150.23V54.07C150.23,73.69,158.76,88.64,174.54,97.82Z" transform="translate(0 0)"/><path class="cls-3" d="M169.91,36.92" transform="translate(0 0)"/><rect x="150.23" y="36.85" width="48.69" height="17.09"/><rect class="cls-2" x="150.23" y="36.85" width="48.69" height="20.29"/><polygon class="cls-4" points="198.92 55.11 198.92 57.13 192.84 57.13 150.23 38.88 150.23 36.85 156.32 36.85 198.92 55.11"/><polygon class="cls-4" points="150.23 55.11 150.23 57.13 156.32 57.13 198.92 38.88 198.92 36.76 192.84 36.76 150.23 55.11"/><path d="M154.4,45.64a3.39,3.39,0,0,0,.2-.74s.41.18.47.13-.67-2.44-.67-2.44h0s-.71,2.39-.68,2.44.47-.13.47-.13S154.33,45.64,154.4,45.64Z" transform="translate(0 0)"/><path d="M154.4,41.78a.27.27,0,1,1-.27.27A.27.27,0,0,1,154.4,41.78Z" transform="translate(0 0)"/><path d="M153.86,42.33a.27.27,0,0,1,0,.53.27.27,0,1,1,0-.53Z" transform="translate(0 0)"/><path d="M154.94,42.33a.27.27,0,1,1-.27.26A.27.27,0,0,1,154.94,42.33Z" transform="translate(0 0)"/><path d="M161.88,49c.07,0,.2-.73.2-.73s.41.17.48.12-.68-2.43-.68-2.43h0s-.71,2.38-.68,2.43.48-.12.48-.12S161.81,49,161.88,49Z" transform="translate(0 0)"/><path d="M161.88,45.15a.27.27,0,1,1-.27.27A.27.27,0,0,1,161.88,45.15Z" transform="translate(0 0)"/><path d="M161.34,45.69a.27.27,0,1,1-.27.27A.27.27,0,0,1,161.34,45.69Z" transform="translate(0 0)"/><path d="M162.42,45.69a.27.27,0,1,1-.27.27A.27.27,0,0,1,162.42,45.69Z" transform="translate(0 0)"/><path d="M154.39,51.9c.07,0,.21-.73.21-.73s.4.17.47.12-.68-2.43-.68-2.43h0s-.71,2.38-.67,2.43.47-.12.47-.12A3.31,3.31,0,0,0,154.39,51.9Z" transform="translate(0 0)"/><path d="M154.39,48.05a.27.27,0,1,1-.27.27A.27.27,0,0,1,154.39,48.05Z" transform="translate(0 0)"/><path d="M153.85,48.59a.27.27,0,1,1-.27.27A.27.27,0,0,1,153.85,48.59Z" transform="translate(0 0)"/><path d="M154.93,48.59a.27.27,0,1,1-.26.27A.27.27,0,0,1,154.93,48.59Z" transform="translate(0 0)"/><path d="M174.58,43.75c.07,0,.2-.73.2-.73s.41.17.47.12-.67-2.43-.67-2.43h0s-.71,2.38-.68,2.43.48-.12.48-.12S174.51,43.75,174.58,43.75Z" transform="translate(0 0)"/><path d="M174.58,39.9a.27.27,0,1,1-.27.27A.27.27,0,0,1,174.58,39.9Z" transform="translate(0 0)"/><path d="M174,40.44a.27.27,0,1,1-.27.27A.27.27,0,0,1,174,40.44Z" transform="translate(0 0)"/><path d="M175.12,40.44a.27.27,0,1,1-.27.27A.27.27,0,0,1,175.12,40.44Z" transform="translate(0 0)"/><path d="M169,41.52c.07,0,.21-.73.21-.73s.4.18.47.13-.68-2.44-.68-2.44h0s-.71,2.38-.67,2.44.47-.13.47-.13A3.31,3.31,0,0,0,169,41.52Z" transform="translate(0 0)"/><path d="M169,37.67a.27.27,0,1,1-.27.27A.27.27,0,0,1,169,37.67Z" transform="translate(0 0)"/><path d="M168.41,38.21a.27.27,0,1,1-.27.27A.27.27,0,0,1,168.41,38.21Z" transform="translate(0 0)"/><path d="M169.49,38.21a.27.27,0,1,1-.26.27A.27.27,0,0,1,169.49,38.21Z" transform="translate(0 0)"/><path d="M180.13,41.48c.07,0,.2-.73.2-.73s.41.17.48.12-.68-2.43-.68-2.43h0s-.71,2.39-.68,2.44.48-.12.48-.12S180.06,41.48,180.13,41.48Z" transform="translate(0 0)"/><path d="M180.13,37.63a.27.27,0,1,1-.27.26A.27.27,0,0,1,180.13,37.63Z" transform="translate(0 0)"/><path d="M179.59,38.17a.27.27,0,1,1-.27.27A.27.27,0,0,1,179.59,38.17Z" transform="translate(0 0)"/><path d="M180.67,38.17a.27.27,0,1,1-.27.27A.27.27,0,0,1,180.67,38.17Z" transform="translate(0 0)"/><path d="M169.07,56.54c.07,0,.2-.74.2-.74s.41.18.47.13-.67-2.44-.67-2.44h0s-.71,2.39-.68,2.44.47-.13.47-.13S169,56.54,169.07,56.54Z" transform="translate(0 0)"/><path d="M169.07,52.68a.27.27,0,1,1-.27.27A.27.27,0,0,1,169.07,52.68Z" transform="translate(0 0)"/><path d="M168.53,53.23a.27.27,0,0,1,0,.53.27.27,0,1,1,0-.53Z" transform="translate(0 0)"/><path d="M169.61,53.23a.27.27,0,1,1-.27.26A.27.27,0,0,1,169.61,53.23Z" transform="translate(0 0)"/><path d="M174.59,54.56c.07,0,.21-.73.21-.73s.4.17.47.12-.68-2.43-.68-2.43h0s-.71,2.38-.67,2.43.47-.12.47-.12A3.31,3.31,0,0,0,174.59,54.56Z" transform="translate(0 0)"/><path d="M174.59,50.71a.27.27,0,1,1-.26.27A.27.27,0,0,1,174.59,50.71Z" transform="translate(0 0)"/><path d="M174.05,51.25a.27.27,0,1,1-.27.27A.27.27,0,0,1,174.05,51.25Z" transform="translate(0 0)"/><path d="M175.14,51.25a.27.27,0,1,1-.27.27A.27.27,0,0,1,175.14,51.25Z" transform="translate(0 0)"/><path d="M180.17,56.6c.07,0,.2-.74.2-.74s.41.18.47.13-.67-2.44-.67-2.44h0s-.71,2.39-.68,2.44.48-.13.48-.13S180.1,56.6,180.17,56.6Z" transform="translate(0 0)"/><path d="M180.17,52.74a.27.27,0,1,1-.27.27A.27.27,0,0,1,180.17,52.74Z" transform="translate(0 0)"/><path d="M179.63,53.29a.27.27,0,0,1,0,.53.27.27,0,1,1,0-.53Z" transform="translate(0 0)"/><path d="M180.71,53.29a.27.27,0,1,1-.27.26A.27.27,0,0,1,180.71,53.29Z" transform="translate(0 0)"/><path d="M194.92,45.66c-.07,0-.21-.74-.21-.74s-.4.18-.47.13.68-2.44.68-2.44h0s.71,2.39.67,2.44-.47-.13-.47-.13A3.39,3.39,0,0,1,194.92,45.66Z" transform="translate(0 0)"/><path d="M194.92,41.8a.27.27,0,1,0,.26.27A.27.27,0,0,0,194.92,41.8Z" transform="translate(0 0)"/><path d="M195.46,42.34a.27.27,0,1,0,.27.27A.27.27,0,0,0,195.46,42.34Z" transform="translate(0 0)"/><path d="M194.37,42.34a.27.27,0,1,0,.27.27A.27.27,0,0,0,194.37,42.34Z" transform="translate(0 0)"/><path d="M187.43,49c-.07,0-.2-.73-.2-.73s-.41.17-.47.12.67-2.43.67-2.43h0s.71,2.38.68,2.43-.48-.12-.48-.12S187.5,49,187.43,49Z" transform="translate(0 0)"/><path d="M187.43,45.17a.27.27,0,1,0,.27.26A.27.27,0,0,0,187.43,45.17Z" transform="translate(0 0)"/><path d="M188,45.71a.27.27,0,0,0-.27.27.27.27,0,0,0,.54,0A.27.27,0,0,0,188,45.71Z" transform="translate(0 0)"/><path d="M186.89,45.71a.27.27,0,0,0-.27.27.27.27,0,1,0,.54,0A.27.27,0,0,0,186.89,45.71Z" transform="translate(0 0)"/><path d="M194.92,51.92c-.07,0-.2-.73-.2-.73s-.41.17-.48.12.68-2.43.68-2.43h0s.71,2.38.67,2.43-.47-.12-.47-.12S195,51.92,194.92,51.92Z" transform="translate(0 0)"/><path d="M194.92,48.07a.27.27,0,1,0,.27.27A.27.27,0,0,0,194.92,48.07Z" transform="translate(0 0)"/><path d="M195.46,48.61a.27.27,0,1,0,.27.27A.27.27,0,0,0,195.46,48.61Z" transform="translate(0 0)"/><path d="M194.38,48.61a.27.27,0,1,0,.27.27A.27.27,0,0,0,194.38,48.61Z" transform="translate(0 0)"/><path class="cls-5" d="M150.31,57.14h48.54c-.86,18.09-9.4,32-24.31,40.68C159.6,89.12,151.15,75.25,150.31,57.14Z" transform="translate(0 0)"/><path class="cls-6" d="M150.31,57.14c.84,18.11,9.29,32,24.23,40.68,14.91-8.71,23.45-22.59,24.31-40.68.05-1,.07-2,.07-3V36.85H150.23V54.07C150.23,55.1,150.26,56.13,150.31,57.14Z" transform="translate(0 0)"/><polyline class="cls-6" points="150.23 57.14 150.31 57.14 198.85 57.14 198.92 57.14"/><path class="cls-7" d="M175.57,73.56a14.57,14.57,0,0,0,4.19-1.74c.83-.55,3.17-1.7,3.16-4.27s-2.08-3.33-3.49-3.54a11.78,11.78,0,0,0-3.54,0,5.94,5.94,0,0,0-2.08.86,5.38,5.38,0,0,0,2-.37c.6-.1,4.38-.37,5.57,1a2.86,2.86,0,0,1,.43,3.63c-1.66,2-4.22,2.81-6.28,3.87Z" transform="translate(0 0)"/><path class="cls-7" d="M170.28,65.72c0-.12,2.14-.83,2.07-.47s-.59.63-.91.68S170.23,65.85,170.28,65.72Z" transform="translate(0 0)"/><path class="cls-7" d="M171.72,92a3.24,3.24,0,0,0,2.17,1.27c.07.61-.15,1.48.36,1.8a.93.93,0,0,0,1.26-.36c.08-.29-.16-.71-.13-1,.14-1.18,1.51-2.58,1.75-3s.9-.33.6-.73-1.48.53-2,1.27a24.19,24.19,0,0,1,0-4.59c-.07-.87,1-1.7.16-2.44L175.69,83c.87.59,2.33.9,2.29,2,0,.7-2.56,2.19-2.56,2.19s-.61.74.24.42c2.12-.81,3.14-2.34,2.92-3.17S177.17,83,176,82.51a51.79,51.79,0,0,1-5.14-1.65,4.13,4.13,0,0,1-2.65-3.47,3.46,3.46,0,0,1,1.61-2.94,11.8,11.8,0,0,1,3.67-1.8v1c-1.43.39-3.57,1.43-4,2.51a2.37,2.37,0,0,0,.13,2.3,5,5,0,0,0,2.88,2.18c.51.19,2.92,1,3.68,1.24s3,1.27,3.16,2.67a3,3,0,0,1-1.19,2.22,10.25,10.25,0,0,1-2.72,1.53s-.51.48,0,.32a16.05,16.05,0,0,0,2.69-1.1,3.47,3.47,0,0,0,1.79-3.32c-.14-1-1.3-1.84-2.9-2.57-1.08-.5-2.5-.93-3.42-1.28-2.14-.82-3.69-1.87-3.72-2.93-.08-2.17,2.1-2.52,3.56-3.15l0,.92a4.31,4.31,0,0,0-1.41.47,1.45,1.45,0,0,0-.71,1.64,3,3,0,0,0,1.5,1.41c.85.39,2.61,1.07,3.64,1.43A7,7,0,0,1,180.3,83a3.46,3.46,0,0,1,.08,3.07,5.38,5.38,0,0,1-2,1.85A10.7,10.7,0,0,1,175.07,89c.37,0-.24.49.2.42a13.08,13.08,0,0,0,4.64-1.69,4.25,4.25,0,0,0,1.37-3.45c0-3.14-3.68-4-5.59-5.23,0-.46.07-6.36.07-6.36.15-1.66,1.09-4.71.47-7,1.55.09,3.75,0,4.23.94a1.85,1.85,0,0,1-.42,2.13c-1.17,1.46-4.2,2.63-4.2,2.63s-.4.54-.16.53a9.64,9.64,0,0,0,2.54-1,7.9,7.9,0,0,0,2.91-2.36,2.16,2.16,0,0,0-.29-2.69c-.65-.74-2.75-.85-3.36-.85a10.25,10.25,0,0,0-3.89.7c-1.21.43-1.09,1.45-1.4,1.58s-1.14-.27-1.56,0a.51.51,0,0,0,.05-.59c-.19-.3-.67-.16-1.09,0-.92.3-1.22.39-1.29-.77.67-.23,1.44-.22,2-.72a6.34,6.34,0,0,1,1.63-.9.6.6,0,0,1,.58.29,16.16,16.16,0,0,1,4.29-1.11,9.68,9.68,0,0,1,3.81.29c1.08.35,3,1.9,3.07,3.44a4.44,4.44,0,0,1-1.56,3.69c-1.25,1.33-4,2.65-6.54,3.51l-.07.65c2.16-.59,5.81-2.23,7.06-3.61a6.54,6.54,0,0,0,1.8-4.08,4.67,4.67,0,0,0-1.63-3.25c-1.12-1.12-4-1.45-6.31-1.09a4.07,4.07,0,0,1-.18-1.73l-.92,0s.25,0,.24.17-.51.35-1,.14-.08-.4-.08-.4l.84.09.92,0a1.46,1.46,0,0,0-.11-.94l-.49.2.19.18-.13.13a4.56,4.56,0,0,1-.54-.54c0-.09.13-.13.13-.13l.35.36.49-.2a2.16,2.16,0,0,0-2.05-.75c-.8.19-1.07.4-1.1.94l.92,0h.24a.4.4,0,0,1,0,.38c-.11.17-.32,0-.32,0l0-.38-.84,0a9.91,9.91,0,0,0,.31,2.06l.51,0a2.23,2.23,0,0,1-.08-.8c.08-.16,1.75.11,1.8.36s-.39.52-.36.72.46.37.46.37a10.38,10.38,0,0,0-1.71.44l-.11-1.09-.51,0a3.81,3.81,0,0,1,.1,1.22l-.75.29c-.94-.54-1.81.19-2.53.72a3.52,3.52,0,0,1-2.16.54l-.18.18c-.06.56.42,1.19.37,1.6,0,0-.78.59-1.21,0s-1.45-.06-2-.06-.85-.3-1-.1.54.54.54.54c-.41.33-.49.59-.4.74s.51-.21.93-.5a1.17,1.17,0,0,1,1.61,0c.64.54,1.11.11,1.65,0,.66.74,1.7.24,2.56.06.63-.14.94.23,1.49.06s.52-1.36,1.25-1.53a9.68,9.68,0,0,1-.16,1.79c-.12.55-.33,1,0,4.13a8.94,8.94,0,0,0-5,2.71,4.09,4.09,0,0,0-.9,3.24c.74,2.81,3.81,3.74,6.28,4.47-.54,2.4.71,6.12-1.82,7.3-.2-.8,1.43-1.47,1.85-2.06-.69.29-1.88.48-2.32,1.53A3,3,0,0,0,171.72,92Z" transform="translate(0 0)"/><polygon class="cls-5" points="174.79 94.52 174.61 94.54 174.43 93.28 174.61 93.26 174.79 94.52"/><path class="cls-5" d="M173.4,91.33c-.13-.26.31-1.12.31-1.12,0,.29,0,.53,0,.81,0,0,0,.53.5.47s.09-1.77,0-2.72c0-.2,0-.43.18-.54l-.18-.18a18.17,18.17,0,0,0,0-5.41c.2,0,.43,0,.54.18a1.72,1.72,0,0,0,0,1.62c.47.31-.4,1.07.54.9l-.12-.12.18-.18.12.12c-.21.11-.18.35-.18.54-.16.06-.25-.09-.36-.18a15.36,15.36,0,0,0-.16,6,1.36,1.36,0,0,1-.74.26A.75.75,0,0,1,173.4,91.33Z" transform="translate(0 0)"/><path class="cls-5" d="M173.71,89.13a5.08,5.08,0,0,0-1,1.76,1.22,1.22,0,0,0,.95,1.4c.65.21,2-.6,2.65-1.13-1,1.45-2.2,1.85-3.17,1.4-.41-.32-1-.55-1-1.36C172.2,90,173.71,89.13,173.71,89.13Z" transform="translate(0 0)"/><path class="cls-5" d="M168.78,67.35c.44.59,1.32-.07,1.32-.07s.48-.34-.07-.37A2.64,2.64,0,0,0,168.78,67.35Z" transform="translate(0 0)"/><path class="cls-5" d="M172.11,76.57a1.17,1.17,0,0,0,.4,1.26,3.59,3.59,0,0,0,.71.38l.13-2.24A1.47,1.47,0,0,0,172.11,76.57Z" transform="translate(0 0)"/><path class="cls-5" d="M175.15,68.75c-.16.06-.25-.09-.36-.18.49-.79-.32-1.76.71-2.18a1.3,1.3,0,0,0-1.07.13c-.91.55.21,2.29-.69,3.07.59,2.3.07,6.93.15,7.46.05.36.09,1,.11,1.42.44.13.79.2.79.2s-.26-8.74-.13-9,.87-.81,1.12-.74l.06-.56Z" transform="translate(0 0)"/></svg>