<?xml version="1.0" encoding="utf-8"?>
<!-- Generator: Adobe Illustrator 22.0.0, SVG Export Plug-In . SVG Version: 6.00 Build 0)  -->
<svg version="1.1" id="Layer_1" xmlns="http://www.w3.org/2000/svg" xmlns:xlink="http://www.w3.org/1999/xlink" x="0px" y="0px"
	 viewBox="0 0 1666 800" style="enable-background:new 0 0 1666 800;" xml:space="preserve">
<style type="text/css">
	.st0{fill:#24292F;}
</style>
<title>GitHub Actions icon</title>
<g>
	<path d="M1187.9,453.6c-3.9,0-7.6-1.5-10.3-4.3l-21.7-21.7c-5.8-5.6-6-14.8-0.4-20.6c5.6-5.8,14.8-6,20.6-0.4
		c0.1,0.1,0.2,0.2,0.4,0.4l11.4,11.4l34.4-34.4c5.7-5.7,14.9-5.7,20.6,0c5.7,5.7,5.7,14.9,0,20.6l0,0l-44.8,44.7
		C1195.4,452,1191.7,453.5,1187.9,453.6L1187.9,453.6z M1460.7,449.3l44.7-44.7c5.6-5.8,5.4-15-0.4-20.6c-5.7-5.5-14.6-5.5-20.3,0
		l-34.4,34.4l-11.4-11.4c-5.6-5.8-14.8-5.9-20.6-0.3c-5.8,5.6-5.9,14.8-0.3,20.6c0.1,0.1,0.2,0.2,0.4,0.4l21.8,21.7
		C1445.7,455,1454.9,455,1460.7,449.3C1460.6,449.3,1460.6,449.3,1460.7,449.3L1460.7,449.3z M999.5,267.4l74.6-46.2
		c13.7-8.5,17.9-26.5,9.5-40.1c-2.3-3.8-5.5-7-9.3-9.3l-74.6-47c-13.6-8.6-31.6-4.5-40.2,9.1c-2.9,4.7-4.5,10-4.5,15.5v93.2
		c0,16.1,13.1,29.2,29.2,29.1C989.6,271.7,994.9,270.2,999.5,267.4z M1058.7,196.3l-74.6,46.3v-93.2L1058.7,196.3z M1567.5,414.6
		c0,56.3-45.8,102.1-102.1,102.1c-50.7-0.1-93.6-37.3-100.9-87.5h-60.7c-7.3,50.2-50.2,87.4-100.9,87.5
		c-50.7-0.1-93.7-37.3-100.9-87.5h-16.3c-28.3,0-54-11.6-72.4-30.4v147.1c0,48.2,39.3,87.5,87.5,87.5h1.2
		c7.1-49.4,49.6-87.5,100.9-87.5c56.3,0,102.1,45.8,102.1,102.1c0,56.3-45.8,102.1-102.1,102.1c-50.7-0.1-93.7-37.3-100.9-87.5h-1.2
		c-64.3,0-116.7-52.3-116.7-116.7V338.7c-67.8-13.9-116.6-73.6-116.7-142.9c0-80.4,65.4-145.8,145.8-145.8s145.8,65.4,145.8,145.8
		c-0.1,79.9-64.5,144.9-144.4,145.8c6.7,33.9,36.4,58.4,71,58.4h16.3c7.1-49.4,49.6-87.5,100.9-87.5c50.7,0.1,93.7,37.3,100.9,87.5
		h60.7c7.3-50.2,50.2-87.4,100.9-87.5C1521.7,312.5,1567.5,358.3,1567.5,414.6z M1130,647.9c0,40.2,32.7,72.9,72.9,72.9
		c40.2,0,72.9-32.7,72.9-72.9c0-40.2-32.7-72.9-72.9-72.9C1162.7,575,1130,607.7,1130,647.9z M1013.3,312.5
		c64.3,0,116.7-52.3,116.7-116.7s-52.3-116.7-116.7-116.7c-64.3,0-116.7,52.3-116.7,116.7S949,312.5,1013.3,312.5z M1275.8,414.6
		c0-40.2-32.7-72.9-72.9-72.9c-40.2,0-72.9,32.7-72.9,72.9s32.7,72.9,72.9,72.9C1243.1,487.5,1275.8,454.8,1275.8,414.6z
		 M1538.3,414.6c0-40.2-32.7-72.9-72.9-72.9s-72.9,32.7-72.9,72.9s32.7,72.9,72.9,72.9S1538.3,454.8,1538.3,414.6z M1159.2,647.9
		c0,8.1,6.5,14.6,14.6,14.6s14.6-6.5,14.6-14.6c0-8.1-6.5-14.6-14.6-14.6S1159.2,639.9,1159.2,647.9z M1217.5,647.9
		c0,8.1,6.5,14.6,14.6,14.6c8.1,0,14.6-6.5,14.6-14.6c0-8.1-6.5-14.6-14.6-14.6C1224,633.3,1217.5,639.9,1217.5,647.9z
		 M1567.5,647.9c0,56.3-45.8,102.1-102.1,102.1c-50.7-0.1-93.7-37.4-100.9-87.6c-0.2,0-0.4,0.1-0.6,0.1l-14.8,0.5h-0.5
		c-8.1-0.2-14.4-6.9-14.2-15c0.2-7.6,6.2-13.7,13.7-14.2l14.8-0.5c0.5-0.1,1,0.2,1.5,0.2c7.1-50.3,50.2-87.7,101-87.8
		C1521.7,545.8,1567.5,591.6,1567.5,647.9z M1538.3,647.9c0-40.2-32.7-72.9-72.9-72.9s-72.9,32.7-72.9,72.9
		c0,40.2,32.7,72.9,72.9,72.9S1538.3,688.1,1538.3,647.9z"/>
	<path class="st0" d="M442.5,62c-190.2,0-344,154.9-344,346.6c0,153.2,98.5,282.9,235.2,328.8c17.1,3.5,23.4-7.5,23.4-16.6
		c0-8-0.6-35.6-0.6-64.3c-95.7,20.7-115.6-41.3-115.6-41.3c-15.4-40.2-38.2-50.5-38.2-50.5c-31.3-21.2,2.3-21.2,2.3-21.2
		c34.7,2.3,53,35.6,53,35.6c30.8,52.8,80.3,37.9,100.2,28.7c2.8-22.4,12-37.9,21.6-46.5c-76.3-8-156.6-37.9-156.6-171
		c0-37.9,13.7-68.9,35.3-92.9c-3.4-8.6-15.4-44.2,3.4-91.8c0,0,29-9.2,94.5,35.6c28-7.6,57-11.4,86-11.5c29,0,58.7,4,86,11.5
		c65.5-44.8,94.5-35.6,94.5-35.6c18.8,47.6,6.8,83.2,3.4,91.8c22.2,24.1,35.3,55.1,35.3,92.9c0,133.1-80.3,162.4-157.2,171
		c12.5,10.9,23.4,31.6,23.4,64.3c0,46.5-0.6,83.8-0.6,95.2c0,9.2,6.3,20.1,23.4,16.6C687.4,691.4,786,561.8,786,408.6
		C786.5,216.9,632.2,62,442.5,62z"/>
</g>
</svg>
