<?xml version="1.0" encoding="utf-8"?>
<!-- Generator: Adobe Illustrator 22.0.0, SVG Export Plug-In . SVG Version: 6.00 Build 0)  -->
<svg version="1.1" id="Layer_1" xmlns="http://www.w3.org/2000/svg" xmlns:xlink="http://www.w3.org/1999/xlink" x="0px" y="0px"
	 viewBox="0 0 100 100" style="enable-background:new 0 0 100 100;" xml:space="preserve">
<style type="text/css">
	.st0{fill:#BCBEC0;}
</style>
<g>
	<path class="st0" d="M91.9,71.8c1.8,1,5.1-1.3,5.9,1.9c0.8,3.1-0.9,5.8-3.3,7.9c-1.9,1.7-4.2,2.4-6.9,2.4c-25.1,0-50.3,0-75.4,0
		c-2.6,0-4.9-0.7-6.9-2.4c-2.3-2.1-4.1-4.8-3.3-7.9C3,70.5,6.3,72.8,8,71.8c0-16.2-0.1-32.4,0.1-48.6c0.1-4.4,3-7.1,7.4-7.1
		c23-0.1,46-0.1,68.9,0c4,0,7.2,2.5,7.3,6.2C92.1,38.6,91.9,55.1,91.9,71.8z M49.5,72c10.8,0,21.7-0.1,32.5,0c4.2,0,6.1-1.6,6-5.9
		c-0.1-13.5-0.1-27,0-40.5c0-4-1.8-5.7-5.8-5.7c-21.5,0.1-43,0.1-64.5,0c-4,0-5.8,1.6-5.8,5.7c0.1,13.5,0.1,27,0,40.5
		c0,4.3,1.8,6,6,5.9C28.5,71.9,39,72,49.5,72z"/>
	<path class="st0" d="M54.9,33.5c-1.9,8.7-3.9,17.4-5.7,26.1c-0.3,1.4-0.9,2.6-2.6,2.3c-1.7-0.3-1.8-1.9-1.5-3.2
		c1.9-8.7,3.8-17.4,5.7-26.1c0.3-1.6,0.8-3.1,2.9-2.5C55.3,30.6,55,32.2,54.9,33.5z"/>
	<path class="st0" d="M67.3,46c-1.8-2.4-3.3-4.4-4.7-6.5c-0.8-1.1-0.9-2.3,0.3-3.1c1.1-0.8,2.2-0.4,3,0.6c1.9,2.5,3.8,5,5.8,7.5
		c0.9,1.1,0.6,2.1-0.2,3.1c-1.7,2.2-3.4,4.5-5.1,6.7c-0.9,1.1-1.9,2.2-3.3,1.2c-1.7-1.2-0.9-2.6,0.1-3.9C64.4,49.9,65.8,48,67.3,46z
		"/>
	<path class="st0" d="M32.8,46c1.4,1.9,2.7,3.6,3.9,5.3c1,1.3,2.3,2.9,0.4,4.3c-1.7,1.2-2.7-0.3-3.6-1.5c-1.4-1.8-2.7-3.8-4.3-5.5
		c-1.7-1.9-1.5-3.4,0.1-5.2c1.7-2,3.3-4.2,4.9-6.3c0.8-1.1,1.9-1.4,3-0.6c1.1,0.8,1,2,0.3,3.1C36,41.6,34.4,43.8,32.8,46z"/>
</g>
</svg>
