<svg id="Layer_1" data-name="Layer 1" xmlns="http://www.w3.org/2000/svg" viewBox="0 0 96.09 68.04"><defs><style>.cls-1{fill:#040404;}</style></defs><title>rating1</title><path class="cls-1" d="M91.92,71.77c1.82,1,5.11-1.31,5.93,1.91s-.94,5.83-3.28,7.91A9.87,9.87,0,0,1,87.7,84Q50,83.95,12.28,84a9.82,9.82,0,0,1-6.86-2.44c-2.35-2.09-4.07-4.78-3.26-7.92S6.28,72.81,8,71.82c0-16.25-.13-32.44.08-48.62.06-4.39,3-7.12,7.45-7.14,23-.12,46-.09,68.92,0,4,0,7.21,2.47,7.29,6.19C92.12,38.64,91.92,55.07,91.92,71.77ZM49.5,72c10.83,0,21.66-.08,32.49,0,4.2,0,6.08-1.63,6.05-5.92-.1-13.49-.08-27,0-40.49,0-4-1.82-5.67-5.79-5.65Q50,20.06,17.76,20c-4,0-5.8,1.61-5.78,5.65.07,13.5.09,27,0,40.49,0,4.29,1.84,6,6,5.92C28.51,71.91,39,72,49.5,72Z" transform="translate(-1.96 -15.98)"/><path class="cls-1" d="M54.91,33.5q-2.88,13-5.75,26.07c-.31,1.45-.89,2.65-2.57,2.32S44.82,60,45.11,58.72C47,50,48.89,41.33,50.78,32.63c.34-1.57.84-3.05,2.85-2.47C55.33,30.64,55,32.19,54.91,33.5Z" transform="translate(-1.96 -15.98)"/><path class="cls-1" d="M67.3,46c-1.8-2.44-3.3-4.43-4.74-6.46-.77-1.07-.87-2.25.25-3.1s2.22-.42,3,.63c1.93,2.49,3.83,5,5.76,7.51.86,1.12.62,2.09-.2,3.14-1.75,2.21-3.44,4.48-5.13,6.73-.86,1.15-1.91,2.16-3.32,1.19-1.7-1.17-.87-2.6.07-3.87C64.39,49.89,65.77,48,67.3,46Z" transform="translate(-1.96 -15.98)"/><path class="cls-1" d="M32.76,46c1.38,1.87,2.68,3.58,3.92,5.31,1,1.35,2.33,2.89.38,4.28-1.66,1.17-2.7-.33-3.62-1.54-1.41-1.85-2.7-3.8-4.25-5.53s-1.48-3.39.09-5.19c1.74-2,3.25-4.2,4.88-6.3.82-1.06,1.94-1.45,3-.64s1,2,.27,3.1C36,41.65,34.39,43.76,32.76,46Z" transform="translate(-1.96 -15.98)"/></svg>